<svg xmlns="http://www.w3.org/2000/svg" viewBox="0 0 240 360" width="480" height="720">
  <defs>
    <pattern id="g" width="10" height="10" patternUnits="userSpaceOnUse">
      <path d="M10 0H0V10" fill="none" stroke="rgba(128,128,128,0.16)" stroke-width="0.6"/>
    </pattern>
    <pattern id="G" width="50" height="50" patternUnits="userSpaceOnUse">
      <path d="M50 0H0V50" fill="none" stroke="rgba(128,128,128,0.16)" stroke-width="1.1"/>
    </pattern>
  </defs>
  <rect width="240" height="360" fill="url(#g)"/>
  <rect width="240" height="360" fill="url(#G)"/>
  <g fill="none" stroke="#ea580c" stroke-width="2.2" stroke-linecap="round" stroke-linejoin="round">
    <path d="M60 250 V150 H78 V136 H90 V150 H104 V110 L120 88 L136 110 V150 H150 V136 H162 V150 H180 V250 Z"/>
    <path d="M104 150 H136 M60 180 H180 M60 215 H180 M90 150 V250 M120 110 V250 M150 150 V250" stroke-opacity="0.5"/>
    <path d="M110 250 V224 Q120 212 130 224 V250"/>
    <path d="M70 120 l6 -6 M96 72 l4 4 M168 96 l-5 5"/>
    <path d="M160 64 l4 10 l10 4 l-10 4 l-4 10 l-4 -10 l-10 -4 l10 -4 Z"/>
  </g>
  <g fill="none" stroke="rgba(128,128,128,0.55)" stroke-width="1" stroke-dasharray="3 4"><path d="M40 250 H200"/></g>
  <text x="12" y="346" font-family="ui-monospace, SFMono-Regular, Menlo, monospace" font-size="11" letter-spacing="1" fill="rgba(128,128,128,0.55)">FIG. BK — MEMOIR</text>
</svg>
