<svg xmlns="http://www.w3.org/2000/svg" viewBox="0 0 400 300" width="800" height="600">
  <defs>
    <pattern id="g" width="10" height="10" patternUnits="userSpaceOnUse">
      <path d="M10 0H0V10" fill="none" stroke="rgba(128,128,128,0.16)" stroke-width="0.6"/>
    </pattern>
    <pattern id="G" width="50" height="50" patternUnits="userSpaceOnUse">
      <path d="M50 0H0V50" fill="none" stroke="rgba(128,128,128,0.16)" stroke-width="1.1"/>
    </pattern>
  </defs>
  <rect width="400" height="300" fill="url(#g)"/>
  <rect width="400" height="300" fill="url(#G)"/>
  <g fill="none" stroke="#ea580c" stroke-width="2.2" stroke-linecap="round" stroke-linejoin="round">
    <circle cx="200" cy="190" r="62"/><circle cx="200" cy="190" r="48"/>
    <ellipse cx="116" cy="170" rx="40" ry="12"/><path d="M76 170 V196 M156 170 V196"/><path d="M76 196 A40 12 0 0 0 156 196"/>
    <ellipse cx="236" cy="112" rx="30" ry="9"/><path d="M206 112 V138 M266 112 V138"/><path d="M206 138 A30 9 0 0 0 266 138"/>
    <path d="M58 118 H130 M94 118 V250"/><path d="M62 124 H126"/>
    <path d="M280 84 L352 72 M316 78 V250"/>
    <path d="M150 80 L186 120 M170 70 L196 112"/>
  </g>
  <g fill="none" stroke="rgba(128,128,128,0.55)" stroke-width="1" stroke-dasharray="3 4"><path d="M200 120 V260 M130 190 H270"/></g>
  <text x="16" y="286" font-family="ui-monospace, SFMono-Regular, Menlo, monospace" font-size="11" letter-spacing="1" fill="rgba(128,128,128,0.55)">FIG. KIT — FRONT</text>
</svg>
